<?xml version="1.0" encoding="UTF-8"?>
<svg version="1.1" xmlns="http://www.w3.org/2000/svg" width="256" height="256">
<path d="M0 0 C1.06412109 -0.01004562 2.12824219 -0.02009125 3.22460938 -0.03044128 C4.39710739 -0.03627228 5.56960541 -0.04210327 6.77763367 -0.04811096 C8.00859772 -0.05789474 9.23956177 -0.06767853 10.50782776 -0.07775879 C14.5960444 -0.1077623 18.68422608 -0.12941092 22.77250671 -0.14796448 C23.46792438 -0.1512618 24.16334205 -0.15455912 24.87983298 -0.15795636 C31.4375896 -0.18873631 37.99535078 -0.21544527 44.55315876 -0.23237514 C52.94272488 -0.25428757 61.33165146 -0.29626991 69.72096187 -0.36581272 C75.61911716 -0.41304608 81.51709985 -0.43730767 87.41543835 -0.44457203 C90.93870889 -0.44952931 94.46125873 -0.46461464 97.9843235 -0.50431633 C101.91561728 -0.5480346 105.84608799 -0.54428714 109.77763367 -0.53639221 C110.94405899 -0.55639282 112.11048431 -0.57639343 113.31225586 -0.59700012 C121.00630476 -0.52746732 121.00630476 -0.52746732 123.76934528 1.44186974 C125.12202454 3.0241394 125.12202454 3.0241394 126.97172546 6.16062927 C127.56219666 7.11131287 128.15266785 8.06199646 128.7610321 9.04148865 C129.56335266 10.50811951 129.56335266 10.50811951 130.38188171 12.00437927 C130.97936218 13.08590271 131.57684265 14.16742615 132.19242859 15.28172302 C132.80022156 16.39676208 133.40801453 17.51180115 134.03422546 18.66062927 C135.25201372 20.88062261 136.47199963 23.09941209 137.69438171 25.31687927 C138.25915222 26.34426208 138.82392273 27.3716449 139.4058075 28.43016052 C140.67139735 30.63695145 141.98567851 32.69249182 143.46781921 34.75437927 C143.96410828 35.54844177 144.46039734 36.34250427 144.97172546 37.16062927 C144.64172546 38.15062927 144.31172546 39.14062927 143.97172546 40.16062927 C142.85689285 40.1642749 141.74206024 40.16792053 140.59344482 40.17167664 C130.01766234 40.208835 119.44216544 40.26683198 108.86660099 40.34453201 C103.4313351 40.38381481 97.99622657 40.41609656 92.56083679 40.43162537 C87.30214304 40.44691951 82.0438825 40.48158706 76.78538322 40.52893829 C74.7926812 40.54362182 72.79991728 40.55166268 70.80716133 40.55251312 C48.24807545 40.57179897 28.7473889 44.31302702 10.97172546 59.16062927 C10.31430359 59.70332458 9.65688171 60.2460199 8.97953796 60.80516052 C-3.43264315 72.10196131 -11.42585087 89.88171351 -12.28218079 106.44578552 C-12.94990529 126.20150074 -7.90407072 142.8448991 4.97172546 158.16062927 C5.8882489 159.37492615 5.8882489 159.37492615 6.82328796 160.61375427 C9.2247723 163.46060479 11.81209163 165.65234991 14.72172546 167.97312927 C15.70656921 168.76332458 16.69141296 169.5535199 17.70610046 170.36766052 C18.45375671 170.95934021 19.20141296 171.5510199 19.97172546 172.16062927 C19.64172546 172.82062927 19.31172546 173.48062927 18.97172546 174.16062927 C7.30879165 172.76651765 -2.17266021 163.35387745 -10.02827454 155.16062927 C-10.75962404 153.95082807 -11.48431144 152.73697845 -12.20283508 151.51951599 C-14.39204246 148.42985404 -14.74121254 148.21855513 -18.71357727 147.41697693 C-20.13051025 147.43686275 -21.54725029 147.49132261 -22.96186829 147.57469177 C-24.51329629 147.59328215 -26.0647288 147.61149984 -27.61616516 147.62937927 C-30.04372818 147.70010645 -32.47001044 147.78579774 -34.89668274 147.88230896 C-48.46276663 148.3501524 -48.46276663 148.3501524 -52.23823547 145.48143005 C-53.83034095 143.11728393 -54.91229479 140.78088256 -56.02827454 138.16062927 C-57.07586639 136.45118356 -58.14693374 134.75593579 -59.23921204 133.07469177 C-60.29735066 131.31374009 -61.35201971 129.5506991 -62.40327454 127.78562927 C-62.94854797 126.91680115 -63.49382141 126.04797302 -64.05561829 125.15281677 C-67.80290831 118.80402465 -69.36513724 113.52237891 -68.02827454 106.16062927 C-66.90726203 103.06528596 -65.32878144 100.46916077 -63.52827454 97.72312927 C-62.51174722 96.07344391 -61.49757174 94.42230788 -60.48530579 92.77000427 C-59.93052551 91.87861755 -59.37574524 90.98723083 -58.80415344 90.0688324 C-55.83270438 85.20274754 -53.04286232 80.23285603 -50.2348175 75.2714386 C-48.52106802 72.24717782 -46.79676014 69.22896892 -45.07124329 66.21141052 C-44.7299942 65.6146199 -44.38874512 65.01782928 -44.03715515 64.4029541 C-40.18183434 57.66956954 -36.26268359 50.97382685 -32.34004211 44.27952576 C-29.10831299 38.75490673 -25.90728009 33.21410685 -22.73921204 27.65281677 C-22.37740845 27.01789307 -22.01560486 26.38296936 -21.64283752 25.72880554 C-19.87719 22.62862597 -18.11475084 19.52667134 -16.35639954 16.42234802 C-15.40120422 14.74205505 -15.40120422 14.74205505 -14.42671204 13.02781677 C-13.58632385 11.54450867 -13.58632385 11.54450867 -12.72895813 10.03123474 C-6.81586824 0.05045511 -6.81586824 0.05045511 0 0 Z " fill="#FDC229" transform="translate(70.02827453613281,20.839370727539063)"/>
<path d="M0 0 C4.95727905 0.50171857 8.51825525 2.11819226 12.625 4.8125 C13.22675049 5.20268311 13.82850098 5.59286621 14.44848633 5.99487305 C22.18263229 11.21356899 29.83813857 18.17952097 35 26 C35 26.66 35 27.32 35 28 C36.02883301 27.95286865 37.05766602 27.9057373 38.11767578 27.85717773 C41.95240187 27.69368737 45.78682436 27.59076018 49.62402344 27.50561523 C51.28112654 27.46048328 52.93787369 27.39915538 54.59375 27.32104492 C68.25160352 26.6931448 68.25160352 26.6931448 72.23413086 29.66992188 C73.83542906 32.03785767 74.90081969 34.36357083 76 37 C77.03705017 38.75509685 78.09638572 40.49718593 79.17578125 42.2265625 C80.224757 44.02406017 81.2703116 45.82355854 82.3125 47.625 C83.1178418 48.97851562 83.1178418 48.97851562 83.93945312 50.359375 C86.73691773 55.1993768 89.00709657 59.25887181 89 65 C88.1015625 67.52734375 88.1015625 67.52734375 86.625 69.9375 C85.78582031 71.35482422 85.78582031 71.35482422 84.9296875 72.80078125 C84.29289063 73.85652344 83.65609375 74.91226563 83 76 C81.94458425 77.86558755 80.90551975 79.739765 79.86645508 81.61450195 C76.09494437 88.40619027 72.18571093 95.11187493 68.22583008 101.79492188 C64.05297726 108.86117406 59.99774852 115.99376166 55.9375 123.125 C51.04489495 131.71677458 46.10222062 140.26826759 40.96875 148.71875 C38.39696018 153.00506637 35.92393627 157.34453531 33.47265625 161.70068359 C31.10107323 165.89892677 31.10107323 165.89892677 30 167 C28.21572813 167.09636838 26.42760347 167.12187453 24.64073181 167.12025452 C23.47820389 167.12162918 22.31567596 167.12300385 21.11791992 167.12442017 C19.83111328 167.12082489 18.54430664 167.11722961 17.21850586 167.11352539 C15.85876976 167.11324352 14.4990335 167.11340125 13.13929749 167.1139679 C9.43698222 167.11425587 5.73469908 167.10835912 2.03239131 167.10139394 C-1.83268781 167.09516043 -5.69776758 167.0945566 -9.56285095 167.09336853 C-16.88684682 167.09025521 -24.21082784 167.0820418 -31.53481716 167.07201904 C-39.87083448 167.06085794 -48.20685249 167.05534746 -56.54287541 167.05032361 C-73.69525888 167.03985919 -90.84762787 167.02225973 -108 167 C-110.2665807 163.08918659 -112.52671408 159.17474591 -114.78100586 155.25683594 C-115.54845816 153.92509477 -116.31764898 152.59435388 -117.08862305 151.26464844 C-118.19780964 149.35092612 -119.30065224 147.4336695 -120.40234375 145.515625 C-120.74716293 144.92380432 -121.09198212 144.33198364 -121.44725037 143.722229 C-124.58460107 138.23353011 -124.58460107 138.23353011 -125 135 C-122.92558466 132.92558466 -118.43095029 133.84581637 -115.5715332 133.84228516 C-114.68679321 133.83720444 -113.80205322 133.83212372 -112.89050293 133.82688904 C-110.95999975 133.81615562 -109.0294839 133.8075472 -107.09896278 133.80076981 C-104.03272129 133.78899314 -100.96662143 133.76953708 -97.9004364 133.74765015 C-89.178709 133.6860381 -80.45699105 133.63223721 -71.73510742 133.59863281 C-66.40403013 133.57753841 -61.0732028 133.54210343 -55.74226952 133.49787521 C-53.71916869 133.48381425 -51.69602353 133.47501544 -49.67287636 133.47182083 C-29.02738495 133.43581324 -11.1145908 130.58260212 6 118 C6.721875 117.26910156 7.44375 116.53820312 8.1875 115.78515625 C10 114 10 114 12 114 C12.26296875 113.4225 12.5259375 112.845 12.796875 112.25 C14.0633429 109.88154056 15.5232179 108.0534706 17.25 106 C29.61966583 90.184315 32.71552713 71.56773135 31 52 C28.77900665 34.20891783 19.54482844 18.16313942 5.51953125 7.03125 C4.15801031 6.04806319 2.77568323 5.09217298 1.36328125 4.18359375 C0.91339844 3.79300781 0.46351563 3.40242188 0 3 C0 2.01 0 1.02 0 0 Z " fill="#FEFEFE" transform="translate(167,70)"/>
<path d="M0 0 C8.55668191 5.89128173 14.5395712 13.82329161 16.63671875 24.12890625 C18.00451863 34.93893757 15.65447727 44.29659648 9 53 C3.6429068 59.57648271 -3.545476 64.43144267 -12 66 C-22.6744735 66.96290354 -31.32335946 65.41015554 -40.3359375 59.45703125 C-41.15964844 58.73580078 -41.15964844 58.73580078 -42 58 C-42 57.34 -42 56.68 -42 56 C-42.99 55.67 -43.98 55.34 -45 55 C-51.80080018 47.06573312 -54.65070861 38.41117247 -54.34765625 28.0546875 C-53.17852322 17.78208041 -48.15124921 9.73329632 -40.75 2.75 C-29.48427816 -6.19415227 -12.50220377 -7.13031405 0 0 Z " fill="#FDC22A" transform="translate(147,102)"/>
<path d="M0 0 C0.99 0.99 1.98 1.98 3 3 C2.67 3.99 2.34 4.98 2 6 C-28.36 6 -58.72 6 -90 6 C-90 5.67 -90 5.34 -90 5 C-60.63 5 -31.26 5 -1 5 C-0.67 3.35 -0.34 1.7 0 0 Z " fill="#F0BF3F" transform="translate(212,55)"/>
<path d="M0 0 C0.71607422 -0.00773437 1.43214844 -0.01546875 2.16992188 -0.0234375 C5.95219269 -0.00941611 8.85630678 0.14044206 12.0625 2.25 C6.33794841 6.06636773 0.76500505 5.54282789 -5.9375 5.25 C-5.9375 4.59 -5.9375 3.93 -5.9375 3.25 C-7.5875 2.92 -9.2375 2.59 -10.9375 2.25 C-7.21425349 -0.23216434 -4.3052041 -0.04625107 0 0 Z " fill="#F3C244" transform="translate(127.9375,97.75)"/>
<path d="M0 0 C0.99 0 1.98 0 3 0 C1.61964507 2.85059343 0.10703513 5.55880904 -1.5625 8.25 C-1.99691406 8.95640625 -2.43132812 9.6628125 -2.87890625 10.390625 C-3.43384766 11.18726562 -3.43384766 11.18726562 -4 12 C-4.33 12 -4.66 12 -5 12 C-5 10.35 -5 8.7 -5 7 C-5.66 7 -6.32 7 -7 7 C-6.67 5.35 -6.34 3.7 -6 2 C-4.02 2 -2.04 2 0 2 C0 1.34 0 0.68 0 0 Z " fill="#F7BE3F" transform="translate(70,87)"/>
<path d="M0 0 C0.33 0 0.66 0 1 0 C2.32 5.94 3.64 11.88 5 18 C1 16 1 16 0.25390625 14.265625 C-0.06615366 11.40970584 -0.09373533 8.62365039 -0.0625 5.75 C-0.04896484 4.13351563 -0.04896484 4.13351563 -0.03515625 2.484375 C-0.02355469 1.66453125 -0.01195312 0.8446875 0 0 Z " fill="#F1C042" transform="translate(57,142)"/>
<path d="M0 0 C2.58361518 -0.05407567 5.16609255 -0.093707 7.75 -0.125 C8.84441406 -0.15013672 8.84441406 -0.15013672 9.9609375 -0.17578125 C13.8044624 -0.21072239 16.74606772 -0.17499684 20 2 C17.22965863 2.24858198 14.46060931 2.47452879 11.6875 2.6875 C10.50897461 2.79674805 10.50897461 2.79674805 9.30664062 2.90820312 C8.54931641 2.96298828 7.79199219 3.01777344 7.01171875 3.07421875 C6.31522217 3.13182373 5.61872559 3.18942871 4.90112305 3.2487793 C2.40690575 2.92238821 1.5788082 1.8898183 0 0 Z " fill="#E9C157" transform="translate(120,98)"/>
<path d="M0 0 C0.97023939 3.88095757 1.04359133 5.29999436 0 9 C-0.99 10.485 -0.99 10.485 -2 12 C-2.66 11.67 -3.32 11.34 -4 11 C-2.68 7.37 -1.36 3.74 0 0 Z " fill="#EFC13E" transform="translate(97,116)"/>
<path d="M0 0 C3.09592835 3.5087188 4.74194623 6.49197399 6 11 C5.01 10.67 4.02 10.34 3 10 C3 8.68 3 7.36 3 6 C1.35 6 -0.3 6 -2 6 C-2 5.34 -2 4.68 -2 4 C-1.34 4 -0.68 4 0 4 C0 2.68 0 1.36 0 0 Z " fill="#EEC244" transform="translate(200,34)"/>
<path d="M0 0 C1.32 1.32 2.64 2.64 4 4 C3.67 4.66 3.34 5.32 3 6 C0.67843403 6.40729228 -1.6568787 6.74438677 -4 7 C-2.68 4.69 -1.36 2.38 0 0 Z " fill="#F0C33E" transform="translate(109,58)"/>
<path d="M0 0 C-2.39509338 2.89932357 -4.31245243 3.50168276 -8 4 C-8.33 3.34 -8.66 2.68 -9 2 C-8.01 2 -7.02 2 -6 2 C-6 1.34 -6 0.68 -6 0 C-3 -1 -3 -1 0 0 Z " fill="#F6C220" transform="translate(76,180)"/>
<path d="M0 0 C3.55780196 0.60990891 6.6828589 1.5783681 10 3 C10 3.66 10 4.32 10 5 C8.51800098 4.55090939 7.03944764 4.09043436 5.5625 3.625 C4.73878906 3.36976563 3.91507812 3.11453125 3.06640625 2.8515625 C1 2 1 2 0 0 Z " fill="#ECC132" transform="translate(110,162)"/>
<path d="M0 0 C0.66 0 1.32 0 2 0 C2 1.98 2 3.96 2 6 C0.68 6 -0.64 6 -2 6 C-1.34 4.02 -0.68 2.04 0 0 Z " fill="#F2BF40" transform="translate(29,80)"/>
<path d="M0 0 C1.32 1.32 2.64 2.64 4 4 C2.35 4.33 0.7 4.66 -1 5 C-1 2 -1 2 0 0 Z " fill="#ECBF21" transform="translate(86,190)"/>
<path d="M0 0 C0.99 0.66 1.98 1.32 3 2 C1.6875 3.5 1.6875 3.5 0 5 C-0.99 5 -1.98 5 -3 5 C-3.66 4.34 -4.32 3.68 -5 3 C-3.35 2.01 -1.7 1.02 0 0 Z " fill="#F1C420" transform="translate(78,184)"/>
<path d="M0 0 C0.99 0.33 1.98 0.66 3 1 C3 2.32 3 3.64 3 5 C2.01 5.33 1.02 5.66 0 6 C-0.38218767 4.34385343 -0.71395102 2.67542976 -1 1 C-0.67 0.67 -0.34 0.34 0 0 Z " fill="#F5BF41" transform="translate(94,136)"/>
</svg>
